<?xml version="1.0" encoding="utf-8"?>
<!-- Generator: Adobe Illustrator 23.0.4, SVG Export Plug-In . SVG Version: 6.00 Build 0)  -->
<svg version="1.1" id="Layer_1" xmlns="http://www.w3.org/2000/svg" xmlns:xlink="http://www.w3.org/1999/xlink" x="0px" y="0px"
	 viewBox="0 0 500 106.4" style="enable-background:new 0 0 500 106.4;" xml:space="preserve">
<style type="text/css">
	.st0{fill:#434346;}
	.st1{fill:#39C2D7;}
	.st2{fill:#ED174D;}
</style>
<g>
	<g>
		<path class="st0" d="M500,102.4v-9.6c0-1.5-1.2-2.3-3.2-2.3h-12.3c-6.6,0-9.4-1.1-9.4-7.2V33.5h21.7c1.7,0,3.1-1.4,3.1-3.1v-9.1
			c0-1.7-1.4-3.1-3.1-3.1h-21.7V3.1c0-1.5-1.2-3.1-2.6-3.1H472l-14.3,2.5c-1.7,0.3-3.1,1.4-3.1,3.1v77.7c0,17.9,9.1,23.1,24.4,23.1
			c6.5,0,14.3-0.6,18-1.2C499,104.9,500,103.9,500,102.4 M416.2,54.3h-32.7v-0.6c0-12.2,6.9-19,16.5-19s16.2,6.9,16.2,19V54.3z
			 M436.7,64.9v-8.6c0-23-13-39.2-36.7-39.2c-23.6,0-37,15.1-37,39.2v11.4c0,30.4,21.9,38.7,37.3,38.7c13.9,0,19.9-0.8,29.9-2.6
			c2.8-0.5,3.2-1.5,3.2-4V89.6c0-1.5-1.2-2.3-2.8-2.3h-0.5c-6.5,0.6-17.1,1.5-28.4,1.5c-14.8,0-18.5-10.6-18.5-19.6v-0.5h50.3
			C435.8,68.8,436.7,67.4,436.7,64.9 M348.8,102.1V89.6c0-1.5-1.2-2.5-2.8-2.5h-33.6c-0.6,0-0.9-0.2-0.9-0.6l0.3-0.5l35.9-49.2
			c0.5-0.6,0.8-2.8,0.8-3.5v-8.7c0-3.4-2.8-6.3-6.2-6.3h-52.4c-1.7,0-3.1,1.4-3.1,3.1v10.9c0,1.5,1.2,2.5,2.8,2.5h34.8
			c0.5,0,0.9,0.2,0.9,0.5s-0.2,0.5-0.5,0.9l-37.3,51.3c-1.4,1.8-2,3.2-2,4.9V99c0,3.4,2.8,6.2,6.2,6.2h54
			C347.4,105.2,348.8,103.8,348.8,102.1 M251.5,68c0,12.6-5.7,20.8-16.5,20.8s-16.5-8.2-16.5-20.8V55.5c0-12.6,5.7-20.8,16.5-20.8
			s16.5,8.2,16.5,20.8V68z M271.8,68V55.5c0-22-12.6-38.4-36.8-38.4s-36.8,16.3-36.8,38.4V68c0,22,12.6,38.4,36.8,38.4
			C259.2,106.4,271.8,90.1,271.8,68 M53.1,54.3H20.5v-0.6c0-12.2,6.9-19,16.5-19s16.2,6.9,16.2,19v0.6H53.1z M73.7,64.9v-8.6
			c0-23-13-39.2-36.7-39.2c-23.6,0-37,15.1-37,39.2v11.4c0,30.4,21.9,38.7,37.3,38.7c13.9,0,19.9-0.8,29.9-2.6
			c2.8-0.5,3.2-1.5,3.2-4V89.6c0-1.5-1.2-2.3-2.8-2.3h-0.5c-6.5,0.6-17.1,1.5-28.4,1.5c-14.8,0-18.5-10.6-18.5-19.6v-0.5h50.3
			C72.7,68.8,73.7,67.4,73.7,64.9"/>
	</g>
	<path class="st1" d="M161.5,61.7l21.7-29.6c3.1-4.2,2.2-10.1-2-13.1c-4.2-3.1-10.1-2.2-13.1,2l-29.8,40.7l29.8,40.7
		c3.1,4.2,8.9,5.1,13.1,2c4.2-3.1,5.1-8.9,2-13.1L161.5,61.7z"/>
	<path class="st2" d="M108.8,61.7L87.1,32.1C84,27.9,84.9,22,89.1,19c4.2-3.1,10.1-2.2,13.1,2L132,61.7l-29.8,40.7
		c-3.1,4.2-8.9,5.1-13.1,2s-5.1-8.9-2-13.1L108.8,61.7z"/>
</g>
</svg>
