<?xml version="1.0" encoding="UTF-8"?>
<svg width="50px" height="50px" viewBox="0 0 50 50" version="1.1" xmlns="http://www.w3.org/2000/svg" xmlns:xlink="http://www.w3.org/1999/xlink">
    <!-- Generator: Sketch 55.1 (78136) - https://sketchapp.com -->
    <title>Icons 50 outline / mail</title>
    <desc>Created with Sketch.</desc>
    <defs>
        <path d="M24.999197,30.6694356 L13.5,20.3225105 L13.5,31.1428571 C13.5,31.7739939 13.7360092,32.3776923 14.1534376,32.8199724 C14.565471,33.2565364 15.1202172,33.5 15.6966,33.5 L34.3031403,33.5 C34.8795231,33.5 35.4342693,33.2565364 35.8463027,32.8199724 C36.2637311,32.3776923 36.4997403,31.7739939 36.4997403,31.1428571 L36.4997403,20.3629205 L24.999197,30.6694356 Z M37.4997403,18.1239366 L37.4997403,31.1428571 C37.4997403,32.0272431 37.167539,32.8769957 36.5735462,33.506352 C35.9741584,34.1414245 35.157123,34.5 34.3031403,34.5 L15.6966,34.5 C14.8426173,34.5 14.0255819,34.1414245 13.4261941,33.506352 C12.8322013,32.8769957 12.5,32.0272431 12.5,31.1428571 L12.5,18.0774895 L25.0005433,29.3254215 L37.4997403,18.1239366 Z M24.9999287,29.0433468 L36.0558763,19.2378834 C36.4946432,18.773904 36.6229763,18.0648142 36.3749306,17.4559101 C36.1310328,16.8571885 35.5760423,16.4832459 34.9462511,16.5026282 C34.9145869,16.5008588 28.3004579,16.4999827 15.1038641,16.5 C15.0645806,16.5025054 15.0645806,16.5025054 15.0232818,16.502596 C14.4248287,16.4832478 13.8698774,16.8571244 13.6259469,17.4557676 C13.3805159,18.0580937 13.5033964,18.758507 13.9307961,19.2227221 L24.9999287,29.0433468 Z M37.3010369,17.0786475 C37.6961276,18.0485183 37.4923921,19.1742351 36.7509745,19.9554615 L24.9998537,30.3801192 L13.2495564,19.9551595 C12.5082918,19.1738021 12.3047305,18.0481668 12.6998755,17.0784193 C13.0980634,16.1012041 14.0268439,15.4735106 15.0310662,15.5025995 C15.0418669,15.5016881 21.6673276,15.5008216 34.9074483,15.5 C35.9835483,15.4799379 36.9049404,16.1063075 37.3010369,17.0786475 Z" id="path-1"></path>
    </defs>
    <g id="Icons-50-outline-/-mail" stroke="none" stroke-width="1" fill="none" fill-rule="evenodd">
        <mask id="mask-2" fill="white">
            <use xlink:href="#path-1"></use>
        </mask>
        <use id="Mask" fill="#000000" fill-rule="nonzero" xlink:href="#path-1"></use>
    </g>
</svg>