<?xml version="1.0" encoding="UTF-8"?>
<svg width="50px" height="50px" viewBox="0 0 50 50" version="1.1" xmlns="http://www.w3.org/2000/svg" xmlns:xlink="http://www.w3.org/1999/xlink">
    <!-- Generator: Sketch 55.1 (78136) - https://sketchapp.com -->
    <title>Icons 50 outline / phone</title>
    <desc>Created with Sketch.</desc>
    <defs>
        <path d="M32.037037,40 L17.962963,40 C16.3333333,40 15,38.6608 15,37.024 L15,11.976 C15,10.3392 16.3333333,9 17.962963,9 L32.037037,9 C33.6666667,9 35,10.3392 35,11.976 L35,37.024 C35,38.6608 33.6666667,40 32.037037,40 Z M17.962963,9.992 C16.8765432,9.992 15.9876543,10.8848 15.9876543,11.976 L15.9876543,37.024 C15.9876543,38.1152 16.8765432,39.008 17.962963,39.008 L32.037037,39.008 C33.1234568,39.008 34.0123457,38.1152 34.0123457,37.024 L34.0123457,11.976 C34.0123457,10.8848 33.1234568,9.992 32.037037,9.992 L17.962963,9.992 Z M24.8765432,37.768 C23.2469136,37.768 21.9135802,36.4288 21.9135802,34.792 C21.9135802,33.1552 23.2469136,31.816 24.8765432,31.816 C26.5061728,31.816 27.8395062,33.1552 27.8395062,34.792 C27.8395062,36.4288 26.5061728,37.768 24.8765432,37.768 Z M24.8765432,32.808 C23.7901235,32.808 22.9012346,33.7008 22.9012346,34.792 C22.9012346,35.8832 23.7901235,36.776 24.8765432,36.776 C25.962963,36.776 26.8518519,35.8832 26.8518519,34.792 C26.8518519,33.7008 25.962963,32.808 24.8765432,32.808 Z M31.2962963,30.824 L18.7037037,30.824 C18.4320988,30.824 18.2098765,30.6008 18.2098765,30.328 L18.2098765,12.72 C18.2098765,12.4472 18.4320988,12.224 18.7037037,12.224 L31.2962963,12.224 C31.5679012,12.224 31.7901235,12.4472 31.7901235,12.72 L31.7901235,30.328 C31.7901235,30.6008 31.5679012,30.824 31.2962963,30.824 Z M19.1975309,29.832 L30.8024691,29.832 L30.8024691,13.216 L19.1975309,13.216 L19.1975309,29.832 Z" id="path-1"></path>
    </defs>
    <g id="Icons-50-outline-/-phone" stroke="none" stroke-width="1" fill="none" fill-rule="evenodd">
        <mask id="mask-2" fill="white">
            <use xlink:href="#path-1"></use>
        </mask>
        <use id="Mask" fill="#000000" fill-rule="nonzero" xlink:href="#path-1"></use>
    </g>
</svg>